<svg xmlns="http://www.w3.org/2000/svg" viewBox="0 0 1200 630">
<rect width="1200" height="630" fill="#0F2B26"/>
<path d="M0 470 Q150 430 300 470 T 600 470 T 900 470 T 1200 470 V630 H0 Z" fill="#14352F"/>
<path d="M600 190c-38 0-63 22-71 50-6 21-2 40 5 61 5 19 10 42 10 70 0 14 8 25 20 25 13 0 18-12 22-30 5-19 8-42 14-42s9 23 14 42c4 18 9 30 22 30 12 0 20-11 20-25 0-28 5-51 10-70 7-21 11-40 5-61-8-28-33-50-71-50z" fill="#C6A15B" opacity="0.85"/>
<text x="600" y="330" font-family="Georgia, serif" font-size="72" fill="#F6F5F0" text-anchor="middle" font-weight="600">SmileDent</text>
<text x="600" y="380" font-family="Arial, sans-serif" font-size="26" fill="#E7D2A4" text-anchor="middle" letter-spacing="2">СТОМАТОЛОГІЯ ПРЕМІУМ-КЛАСУ</text>
</svg>
